<svg version="1" xmlns="http://www.w3.org/2000/svg" width="933.333" height="933.333" viewBox="0 0 700.000000 700.000000"><path d="M548 3.7c-6 .9-21.6 4.6-22.5 5.3-.7.6-1.3 21.4-.6 22.7.1.1 2.9-1.1 6.4-2.7 14-6.3 30.1-8.3 36.8-4.4 4.9 2.9 6.5 6.6 4.9 11.6-1.4 4.7-2.9 6.4-16.5 17.3-9.4 7.6-12.5 12.2-13.2 19.7l-.5 4.8h16.1c8.9 0 16.1-.3 16.2-.8.8-7.8 2-9.7 10.1-15.8 15.8-12.1 19.9-17.8 20.6-28.8.3-6.3.1-7.7-2.5-12.5-3.4-6.6-11.1-12.2-19.9-14.7-5.6-1.6-29-2.7-35.4-1.7zM74.8 6c-2.9 3.3-4.5 7.2-6.3 15-4.6 19.9-6.4 24.5-13.8 34.2-14.2 18.6-17.2 27.7-14.2 43.3 1 5.6 1 6.5-.7 8.5-2.2 2.7-2.3 8.1-.3 12 1.5 2.9 1.4 3.3-2.8 11.7-2.4 4.9-6.5 13.7-9.2 19.8-2.6 6-5.5 12.8-6.5 15-2.8 6.4-9.7 27.2-12 36.4C3.2 224.1 1.5 246 4.4 260c2.1 9.8 6.8 19.3 12.9 25.7 5.3 5.6 20.9 16.2 34.9 23.7l8.7 4.6 1.3-2.5c1.2-2.2 1.4.5 1.4 18.7.1 19.4 1 42.3 2 47.3.2 1.1.9 6 1.4 10.9.6 5 1.8 12.4 2.6 16.5.9 4.2 1.8 8.7 2 10.1.3 1.4 1.6 6.5 3 11.5 1.5 4.9 2.7 9.4 2.8 10 .5 2.8 4 12.1 4.7 13 .5.5.9 1.5.9 2.2 0 2 8.3 19.4 12.7 26.7 7.9 13 13 19.2 28.6 34.5l11.9 11.6-.6 4c-.3 2.2-.8 5.1-1.1 6.5-4.1 19.1-4.9 41.7-2.1 58 .4 1.9.9 5.1 1.2 7 1.9 11.5 10.1 39.8 15.3 52.8 2.2 5.4 2.7 8.4 1.4 8-.8-.2-7.6.7-13.3 1.7-1.4.2-6.4 1.1-11.2 1.9-10.2 1.7-12.3 2.7-14.3 6.5-2.2 4.3-.6 9.7 3.8 12.5 2.8 1.9 6.9 1.6 33.7-2.8 20.4-3.4 21.6-3.7 23.7-6.3 3.6-4.4 3.5-7.1-.5-16.6-8.7-20.3-16-44.1-19.3-62.6-3-16.4-3-37.7-.1-50.1 1.2-4.8 1.2-4.9 1.2-6 0-.6 1.7 0 3.8 1.3 6.7 4.3 15 7.7 25.9 10.7 9.4 2.6 9.3 2.6 16.8 3.5 3.2.3 6.3.9 6.7 1.1 1.2.7 25.3.7 30.8-.1 8-1 15.7-2.5 21-4.1 2.9-.8 5.4-1.3 5.7-1.1.2.3.7 5.8 1 12.3.5 11-.2 19-3.2 35.7-2 11-13.2 44.1-20.3 60.1-4.6 10.3-4.8 14.8-.9 18.1 1.3 1.2 8.2 4.3 15.3 6.9 7.1 2.7 14.3 5.4 15.9 6.1 14.3 6.1 19.3 7.2 23.5 5.5 6.5-2.7 7.3-12.6 1.3-16.5-1.4-.9-8.9-4.1-16.7-7-7.7-2.9-15.3-5.8-16.8-6.4l-2.7-1 3.5-8.3c4.3-10 11.8-32.3 14.5-42.7 6.7-25.6 8.1-48.1 4.5-68.6-.5-2.9-.1-3.4 7.2-8.3 23-15.5 40.4-40.1 51.1-72 3.7-10.9 7.6-30 8.7-41.7.2-3.3.7-8 .9-10.5.7-6.1.7-27.1 0-34.6l-.6-6.2 5.5-5.4c5.3-5.4 10.9-14.8 12.1-20.4.4-1.6.8-6.5 1-11 .7-18.7-8.3-29.4-25.5-30-4.1-.2-9.1.1-11.1.5-3.4.8-3.8.6-5.4-2.3-5-8.5-20.2-25.2-38-41.4-16.7-15.3-46.5-26.1-72.4-26.2l-8.6-.1 4.6-1.8c13.6-5.3 28.4-19.6 37.7-36.1 3.8-6.9 4.4-10.6 1.9-13.2-.7-.7-1.7-2.5-2.4-3.9-1.5-3.4-5.7-4.5-8.9-2.4-1.3.8-3.5 3.7-4.8 6.3-5.3 10.4-15.6 21.9-25.1 28-10.1 6.4-29.5 8.6-29.5 3.2 0-2.1 8.8-16.8 13.6-22.7 14.4-17.6 33.7-26.4 57.6-26.5 7.8 0 12 .5 23.3 2.8 15 3 39.9 14.7 57.3 27.1 5.1 3.6 6.2 4.1 6.3 2.6.1-1 .2-3.4.3-5.3.2-1.9.6-10.3 1-18.5.4-8.3.9-17.5 1.1-20.5.2-3 .7-10.9 1-17.5.3-6.6.7-13.9.9-16.1l.2-4.2-7.7-3.8c-7.6-3.7-7.8-3.8-7.3-7.1.4-3.2.2-3.4-7.5-7.3-8.7-4.3-21.1-9.6-30.6-12.8-7.8-2.8-28.6-7.9-35.2-8.8-4.9-.6-5.1-.8-5.8-4.3-1.2-6.5-6.5-17.7-9.8-20.8-6.4-6-11.5-7-18.5-3.4C216.1 51 205 64 201.6 72.1c-1.2 2.9-2.1 3.4-10.2 5.4-4.9 1.3-8.9 2.2-8.9 2.1-.1 0-2.1-4.1-4.5-9.1-5.4-10.8-13.9-20-19.4-21.1-7.3-1.3-13.5 2.3-19.2 11.1-3.4 5.4-9 20.2-8 21.3.3.3.1 1.1-.5 1.8-1.7 2.1-1.5 23.6.2 25.9.4.6-.6 2.6-2.4 4.5-10.1 10.9-20.1 24.3-25.3 33.9-1.4 2.5-3.5 6.2-4.6 8.1-9.1 15.3-23.5 57.4-26.3 77-.4 2.4-.8 4.7-1 5-.2.3-.6 2.4-.9 4.6-.4 2.2-.8 5.1-1.1 6.4-.2 1.3-.7 4.6-1 7.4-.3 2.8-.8 6-1 7.1-.7 3.1-1.4 10.2-2.1 20-.3 4.9-.7 9.2-.9 9.3-.6.7-12.8-6.1-21.6-11.9-4.8-3.2-10.3-7.7-12.3-10-15.7-18.4-7.7-65.5 21.6-127.1l4.2-8.7 4.8.6c5.6.7 9.4-1.3 10.9-5.6.8-2.4 1.9-2.9 9.2-4.5 11-2.4 11.4-2.4 17.7 1.3 7.4 4.5 10.9 4.9 14.3 2 3.4-2.9 4.6-7.2 4.2-13.9-.7-9.8-6.2-14.7-17.5-15.7l-5.8-.6 1.8-5.1c4.3-12.7 9.4-21.3 19.9-33.6 10.5-12.4 12.3-20.4 6-26.3-5.1-4.7-8-3.2-15.6 7.8-4.9 7.2-10.9 14.2-11.6 13.5-.9-.9 5.2-12.4 13-24.4 6.5-10 6.8-14.4 1.7-20.5-1.9-2.3-3.4-3.1-5.9-3.1-4.5 0-6.6 2.3-11.1 12.9C88 30.2 82.2 42 81.5 42c-.6 0-.6 0 2.5-14.5 2.6-12.4 2.7-17.7.6-21-2.1-3.2-7.3-3.5-9.8-.5zm109.5 229.6c5.7 1.5 5.2 1.4 8 1.5 1.2 0-.5.8-3.8 1.8-3.3.9-8.2 2.7-10.9 3.9-2.7 1.2-5 2.2-5.2 2.2-.4 0 .1-2.4 1.5-7.8 1.1-3.8 1.5-4.2 3.4-3.6 1.2.4 4.3 1.3 7 2zm39.3 88.3c.8.1 1.1 3.1.9 9.9-.2 5.4.1 12 .6 14.6.9 5.1.4 6.2-3.9 8.5-3.1 1.6-11.4 1.5-17.8-.2-7.3-2.1-12.3.1-15.6 6.8-2.2 4.5-2.2 9.9.1 14.9 1.6 3.6 1.7 4.7.7 5.3-2 1.2-4.3 6.3-5 11.1-.9 6.9 1 13.7 4.9 17 2.3 2.1 3.5 4.2 4 7.1.8 5 4.4 9.5 9.4 12.1 7.5 3.8 20.7 4.7 30.1 1.9 2.5-.7 4.7-1.3 5-1.4.3 0 2.4-1.1 4.7-2.3l4.3-2.2-3 8.1c-8.8 24.1-21.7 33.9-43.1 32.6-5.8-.4-10.4-1.3-13.9-2.8-4.6-2-5.5-2.9-7.5-7.3-2.6-6-5.1-14.3-6-20.6-.4-2.5-.9-5.9-1.2-7.5-.6-3.9-.6-34.1.1-38 .3-1.7.8-5.7 1.1-9 .3-3.3 1-7.6 1.5-9.5.5-1.9 1.1-5.1 1.4-7 .3-1.9 1.4-6.1 2.5-9.3 8.3-24.1 23.3-34.8 45.7-32.8zm124.3 1c1.9 1.2 2.6 10 1.1 16-.7 2.8-1.5 5.1-1.8 5.1-.4 0-2.3-5-4.3-11l-3.6-11h3.6c2 0 4.2.4 5 .9zM616.6 40.9c-2.1 3.3-3.9 6.2-4 6.6 0 .4 3.1.8 6.9 1 8.4.5 10.4.9 14.9 3 6.6 3.2 8 7.3 3.8 11.5-2.1 2.1-4.8 3.2-10.8 4.5-10.9 2.4-18.6 5.9-20.8 9.6-1.7 2.9-1.7 2.9 1 4 1.6.5 5.7 2.3 9.2 4 6.3 2.9 6.5 2.9 7.8 1 1.4-2 7.7-4.7 12.7-5.5 1.5-.3 5.3-1.2 8.5-2.1 9.9-2.9 17.1-12.6 15.6-21-1.2-6.7-9.4-13.4-21.9-17.9-5.2-1.8-16.6-4.6-19-4.6-.1 0-1.8 2.7-3.9 5.9zM509 45.4c-5.3 1.5-11.4 4.6-15.2 7.8l-2.7 2.3 2.5 4.3c1.4 2.3 2.9 4.2 3.3 4.2.5 0 1.6-1.1 2.4-2.4 3.5-5.3 12-8.5 15.6-6 2.6 1.9 2.7 4.9.1 10.9-2.3 5.3-2.6 10.8-.7 12.3.8.7 3 .3 7.4-1.5 5.7-2.3 6.1-2.7 5.3-4.7-.6-1.6-.2-3.6 1.1-6.6 3.2-7.1 3.4-11 .7-15-4.3-6.4-10.5-8.2-19.8-5.6zM478.4 79.2c-2.1 2.1-4 5.1-4.9 8.1l-1.4 4.7 3.6 1.5c4.5 1.9 4.5 1.9 4.1-.8-.4-3.7 2.2-8.7 4.6-8.7 3 0 4.1 1 6.6 6 2 4 4.5 6.9 6 7 .3 0 1.4-1.6 2.4-3.5 1.7-3.1 1.8-3.7.4-5.2-.8-1-2.5-3.7-3.8-5.9-4-7.3-11.6-8.7-17.6-3.2zM524.6 81.6c-3.3 1.3-6.1 2.6-6.4 2.9-.3.3 4 8.7 5.4 10.4.3.3 2.9-.7 10-4l3.1-1.4-3.1-5.1-3.2-5.2-5.8 2.4zM596.3 92.3c-2.3 3.4-4.4 6.9-4.7 7.7-.4 1.1 1.6 2.5 7.9 5.2 4.7 2.1 8.9 3.8 9.3 3.8.4 0 2.8-3.3 5.4-7.3l4.8-7.2-8.8-4.2c-4.8-2.3-8.9-4.2-9.2-4.2-.3-.1-2.4 2.7-4.7 6.2zM543.2 102.2l.3 13.2 15.8.1H575l.1-2.5c0-1.4.1-7.2.2-13l.1-10.5-16.2-.3-16.3-.2.3 13.2zM503.2 94.9l-2.1 3.7 4.5 1.7 4.4 1.6 1.9-3.8 1.9-3.7-4.2-1.6-4.3-1.6-2.1 3.7zM585.3 128.1c-4.1 1.2-9.5 6.7-11.8 12.1-1.1 2.4-2 4.5-2.1 4.6-.7 1.1-13.9 1.2-17 .2-3.9-1.3-6.1-1.8-8.5-1.9-1.1-.1-1.4-.9-1.1-3 .5-3.6-3.6-7.1-8.3-7.1-2.8 0-4.4 1.2-10.9 8.2-4.2 4.5-7.6 7.9-7.6 7.6 0-.3 1.1-3.1 2.5-6.2 3.4-7.6 3.3-11.3-.1-12.7-5.4-2-9.2.8-13.9 10.1-3.3 6.6-6.9 11-11.5 13.8-12.7 8.1-17.1 14-16.5 21.7.4 5 .8 4.8-15 10-42 14-63.5 28.9-63.5 44.1 0 11.5 7.4 18.5 32.1 30.3 9.4 4.5 10.4 4.7 11.3 2.8.3-.6.4-.3.2.8-1.9 9-2.7 32.6-1.4 41.2.4 3.2 1.1 7.3 1.3 9.2.7 4.7 5.2 17.7 8.1 23.6 3.1 6.2 10 15.8 14.8 20.7 5.1 5.2 22 18.7 28.6 22.8 3 1.8 5.7 3.5 5.9 3.6.2.2-.2 3.1-.8 6.6-3.4 18-1 32 8.8 51.8 1.7 3.5 3 6.4 2.9 6.6-.2.1-3.4.5-7.3.9-15.2 1.4-17.9 2.1-20.6 5.1-3.7 4.3-2.5 11.9 2.2 14.5 2.2 1.1 11.9 1.4 16.7.5 1.2-.3 5.5-.8 9.5-1.1 19.9-1.6 22.5-2.3 25-6.4 2.7-4.5 2.1-7-3.9-17.1-11.1-18.5-15.6-31.3-15-42.5.6-10.9.6-10.9 7.6-8.9 21 5.8 43.4 7.9 63.5 6 8.3-.7 12.8-1.4 17.2-2.6 3.7-1 4.3-.1 4.3 6.7 0 9.5-6.1 25.4-14.6 38.3-7.5 11.4-8.7 13.8-8 17.4 1 5.4 4 7.2 17.6 10.6 6.9 1.7 13.6 3.3 15 3.6 1.4.3 4.3 1 6.5 1.6 11.8 3.3 19.9-3.7 15.1-13.1-1.8-3.4-7.4-5.9-17.1-7.7-2.4-.4-10.9-2.6-11.3-2.9-.1-.1 1.3-2.9 3.3-6.2 4.5-7.6 9.8-20.1 11.5-27.3 1.5-6.1 1.9-18.4.8-24.5l-.8-4.1 6-3.2c20.5-11.3 34.7-29.8 40.5-52.7.8-3.3 1.6-7.5 1.8-9.4.3-2.8 1.5-4.1 7-8.2 3.7-2.7 7.9-6.7 9.4-9.1 2.5-3.6 2.8-5.1 2.8-11.7-.1-8.3-1.4-11.8-6.4-16.8-4.8-4.9-9.7-6.6-19.6-7.1l-9-.5-6.5-5.7c-3.6-3.1-9.9-8.2-14-11.3-4.1-3.2-8-6.1-8.6-6.6-2.8-2.2-18.8-9.3-26.1-11.5-15.6-4.7-24.1-6-39.8-6-8.2-.1-17.9.3-21.5.8-5.3.6-6.3.6-5.3-.5.7-.7 2.7-1.4 4.4-1.5 6.4-.4 10.2-1.6 19.6-6.2 8.8-4.2 10.5-4.7 16.8-4.7 8.2 0 12.6 1.8 22.9 9.4 5.5 4.1 7.4 5 9.5 4.5 3.2-.8 5.1-3 5.1-6 0-2.3-3.7-9.4-4.8-9.4-.4 0-2-1.2-3.7-2.8-7.5-6.8-18.1-11.7-28.5-13l-6.5-.8 7.5-1.7c25.1-5.8 56 .2 88.6 17.3l11.1 5.8 4.7-21.1c2.5-11.7 4.6-21.5 4.6-21.9 0-.4-2.6-2-5.9-3.4-4.4-2-5.7-3.1-5.4-4.3 1-3.7-32.2-15.4-61.4-21.6-1.3-.3-2.5-1.7-3.2-3.8-1.7-5.1-9.2-13-15.4-16-5.8-2.8-9-3.2-14.4-1.6zm-126.5 87.6c-2.6 5.4-6.2 14.1-7.9 19.3-1.7 5.2-3.2 9.6-3.4 9.9-.7.7-21.2-10-24.3-12.7-3.8-3.2-3.4-3.9 4.8-9.3 7.2-4.8 10.2-6.3 24-12 6.3-2.6 11.5-4.8 11.6-4.8 0-.1-2.1 4.3-4.8 9.6zm118.9 62.8c8.2 1.8 11 3 12.9 6 2.7 4.1 4.4 13.3 3.8 20.5-.3 3.6-.5 7.3-.5 8.2 0 2.5-1.1 2.3-5.5-1.3-6.4-5.1-15.2-8.9-20.9-8.9-6.7 0-10.5 2.5-13.5 8.8-2 4.3-2.7 4.9-4.8 4.6-1.3-.3-4.4.5-6.8 1.6-3.5 1.7-4.5 2.8-5 5.5-.3 1.8-.1 4.2.5 5.3.9 1.7.7 2.8-1.3 5.6-2.1 3.1-2.3 4.1-1.4 7.4.6 2.6 1.9 4.4 3.9 5.6 6.1 3.6 2.3 4.9-4.9 1.6-3.4-1.5-4.7-2.9-6.4-6.7-5.1-11.5-1.9-34 6.8-48.5 8.2-13.5 24.6-19.3 43.1-15.3zm99.3 17.8c0 2.6-1.5 1.2-2.5-2.3-.7-2.2-.6-2.3.9-1.1.9.7 1.6 2.3 1.6 3.4z"/></svg>